<svg width="850" height="600" viewBox="0 0 850 600" fill="none" xmlns="http://www.w3.org/2000/svg">
<path d="M182.7 500.903C186.7 500.903 190 502.303 192.8 505.103C195.6 507.903 197 511.303 197 515.203V564.803H146.3C142.3 564.803 139 563.403 136.2 560.603C133.4 557.803 132 554.403 132 550.503V526.903H185.1V515.203C185.1 514.503 184.9 514.003 184.4 513.503C183.9 513.003 183.4 512.803 182.7 512.803H132V500.903H182.7ZM185.1 552.903V538.803H143.9V550.503C143.9 551.203 144.1 551.703 144.6 552.203C145.1 552.703 145.6 552.903 146.3 552.903H185.1V552.903ZM299.8 500.903H312.5L288.5 564.803H278.8L257.3 517.303L237 564.803L236.8 564.703L236.9 564.803H227.3L202.2 500.903H214.8L232.1 543.303L250.5 500.903H264.1L283.6 543.303L299.8 500.903ZM367 500.903C371 500.903 374.3 502.303 377.1 505.103C379.9 507.903 381.3 511.303 381.3 515.203V538.803H328.2V550.503C328.2 551.203 328.4 551.703 328.9 552.203C329.4 552.703 329.9 552.903 330.6 552.903H381.3V564.803H330.6C326.6 564.803 323.3 563.403 320.5 560.603C317.7 557.803 316.3 554.403 316.3 550.503V515.203C316.3 511.203 317.7 507.903 320.5 505.103C323.3 502.303 326.7 500.903 330.6 500.903H367V500.903ZM328.2 526.903H369.4V515.203C369.4 514.503 369.2 514.003 368.7 513.503C368.2 513.003 367.7 512.803 367 512.803H330.6C329.9 512.803 329.4 513.003 328.9 513.503C328.4 514.003 328.2 514.503 328.2 515.203V526.903V526.903ZM457.2 515.303V517.703H445.3V515.303C445.3 514.603 445.1 514.103 444.6 513.603C444.1 513.103 443.6 512.903 442.9 512.903H406.5C405.8 512.903 405.3 513.103 404.8 513.603C404.3 514.103 404.1 514.603 404.1 515.303V524.603C404.1 525.303 404.3 525.803 404.8 526.303C405.3 526.803 405.8 527.003 406.5 527.003H442.9C446.9 527.003 450.2 528.403 453 531.203C455.8 534.003 457.2 537.403 457.2 541.303V550.603C457.2 554.603 455.8 557.903 453 560.703C450.2 563.503 446.8 564.903 442.9 564.903H406.5C402.5 564.903 399.2 563.503 396.4 560.703C393.6 557.903 392.2 554.503 392.2 550.603V548.203H404.1V550.603C404.1 551.303 404.3 551.803 404.8 552.303C405.3 552.803 405.8 553.003 406.5 553.003H442.9C443.6 553.003 444.1 552.803 444.6 552.303C445.1 551.803 445.3 551.303 445.3 550.603V541.303C445.3 540.603 445.1 540.103 444.6 539.603C444.1 539.103 443.6 538.903 442.9 538.903H406.5C402.5 538.903 399.2 537.503 396.4 534.703C393.6 531.903 392.2 528.503 392.2 524.603V515.303C392.2 511.303 393.6 508.003 396.4 505.203C399.2 502.403 402.6 501.003 406.5 501.003H442.9C446.9 501.003 450.2 502.403 453 505.203C455.8 507.903 457.2 511.303 457.2 515.303ZM482.4 500.903H518.8C522.8 500.903 526.1 502.303 528.9 505.103C531.7 507.903 533.1 511.303 533.1 515.203V550.503C533.1 554.503 531.7 557.803 528.9 560.603C526.1 563.403 522.7 564.803 518.8 564.803H482.4C478.4 564.803 475.1 563.403 472.3 560.603C469.5 557.803 468.1 554.403 468.1 550.503V515.203C468.1 511.203 469.5 507.903 472.3 505.103C475.1 502.303 478.5 500.903 482.4 500.903V500.903ZM518.8 512.803H482.4C481.7 512.803 481.2 513.003 480.7 513.503C480.2 514.003 480 514.503 480 515.203V550.503C480 551.203 480.2 551.703 480.7 552.203C481.2 552.703 481.7 552.903 482.4 552.903H518.8C519.5 552.903 520 552.703 520.5 552.203C521 551.703 521.2 551.203 521.2 550.503V515.203C521.2 514.503 521 514.003 520.5 513.503C520 513.103 519.5 512.803 518.8 512.803ZM626.3 500.903C630.3 500.903 633.6 502.303 636.4 505.103C639.2 507.903 640.6 511.303 640.6 515.203V564.803H628.8V515.203C628.8 514.503 628.6 514.003 628.1 513.503C627.6 513.003 627 512.803 626.3 512.803H601.1C600.4 512.803 599.9 513.003 599.4 513.503C598.9 514.003 598.7 514.503 598.7 515.203V564.803H586.8V515.203C586.8 514.503 586.6 514.003 586.1 513.503C585.6 513.003 585.1 512.803 584.4 512.803H559.1C558.4 512.803 557.9 513.003 557.4 513.503C556.9 514.003 556.7 514.503 556.7 515.203V564.803H544.8V500.903H626.3ZM702.8 500.903C706.8 500.903 710.1 502.303 712.9 505.103C715.7 507.903 717.1 511.303 717.1 515.203V538.803H664V550.503C664 551.203 664.2 551.703 664.7 552.203C665.2 552.703 665.7 552.903 666.4 552.903H717.1V564.803H666.4C662.4 564.803 659.1 563.403 656.3 560.603C653.5 557.803 652.1 554.403 652.1 550.503V515.203C652.1 511.203 653.5 507.903 656.3 505.103C659.1 502.303 662.5 500.903 666.4 500.903H702.8V500.903ZM664 526.903H705.2V515.203C705.2 514.503 705 514.003 704.5 513.503C704 513.003 703.5 512.803 702.8 512.803H666.4C665.7 512.803 665.2 513.003 664.7 513.503C664.2 514.003 664 514.503 664 515.203V526.903V526.903Z" fill="#494368"/>
<path d="M511.084 134.775H340.73V81.1873C340.73 56.2154 360.946 36 385.918 36H465.897C490.869 36 511.084 56.2154 511.084 81.1873V134.775V134.775Z" fill="#E06055"/>
<path d="M392.439 44.4774C389.984 37.2275 376.558 41.5238 369.615 45.7049C362.672 49.8861 352.967 60.9336 356.457 63.7338C359.91 66.4957 365.587 59.4376 377.67 56.1003C388.909 52.9932 394.472 50.4615 392.439 44.4774Z" fill="white"/>
<path d="M521.362 94.9199H330.639V86.8645C330.639 79.9981 336.201 74.436 343.067 74.436H508.971C515.838 74.436 521.4 79.9981 521.4 86.8645V94.9199H521.362Z" fill="#CE453E"/>
<path d="M640.275 222.58L648.177 46.5871C648.407 41.2552 652.819 37.0356 658.189 37.0356C663.713 37.0356 668.201 41.5237 668.201 47.0474V273.291C668.201 276.475 666.666 279.505 664.096 281.385L635.672 302.137L640.275 222.58Z" fill="#78A3AD"/>
<path d="M212.723 222.58L204.86 46.5871C204.591 41.2552 200.18 37.0356 194.848 37.0356C189.324 37.0356 184.836 41.5237 184.836 47.0474V273.291C184.836 276.475 186.37 279.505 188.94 281.385L217.365 302.137L212.723 222.58Z" fill="#78A3AD"/>
<path d="M233.512 323.005C253.278 323.005 269.301 293.226 269.301 256.49C269.301 219.755 253.278 189.975 233.512 189.975C213.746 189.975 197.723 219.755 197.723 256.49C197.723 293.226 213.746 323.005 233.512 323.005Z" fill="#E06055"/>
<path d="M237.927 189.936H227.877V323.005H237.927V189.936Z" fill="#CE453E"/>
<path d="M229.059 323.014L239.109 323.014L239.109 189.946L229.059 189.946L229.059 323.014Z" fill="#CE453E"/>
<path d="M619.756 323.005C639.522 323.005 655.545 293.226 655.545 256.49C655.545 219.755 639.522 189.975 619.756 189.975C599.99 189.975 583.967 219.755 583.967 256.49C583.967 293.226 599.99 323.005 619.756 323.005Z" fill="#E06055"/>
<path d="M615.321 323.014L625.371 323.014L625.371 189.946L615.321 189.946L615.321 323.014Z" fill="#CE453E"/>
<path d="M624.165 189.936H614.115V323.005H624.165V189.936Z" fill="#CE453E"/>
<path d="M607.25 134.737L564.787 93.2324C557 85.6373 546.604 81.3794 535.71 81.3794H318.059C307.203 81.3794 296.77 85.6373 288.983 93.2324L246.519 134.737C238.502 142.563 234.014 153.265 234.014 164.466V215.944V320.205V371.683C234.014 382.884 238.54 393.586 246.519 401.412L288.983 442.917C296.77 450.512 307.165 454.77 318.059 454.77H535.71C546.566 454.77 557 450.512 564.787 442.917L607.25 401.412C615.267 393.586 619.756 382.884 619.756 371.683V320.243V215.982V164.466C619.756 153.303 615.229 142.563 607.25 134.737Z" fill="#78A3AD"/>
<path d="M335.512 270.414C366.506 270.414 391.632 245.289 391.632 214.295C391.632 183.3 366.506 158.175 335.512 158.175C304.518 158.175 279.393 183.3 279.393 214.295C279.393 245.289 304.518 270.414 335.512 270.414Z" fill="#546E7A"/>
<path d="M335.511 249.586C355.002 249.586 370.802 233.785 370.802 214.295C370.802 194.805 355.002 179.004 335.511 179.004C316.021 179.004 300.221 194.805 300.221 214.295C300.221 233.785 316.021 249.586 335.511 249.586Z" fill="#B8E9F4"/>
<path d="M514.573 270.414C545.567 270.414 570.693 245.289 570.693 214.295C570.693 183.3 545.567 158.175 514.573 158.175C483.579 158.175 458.453 183.3 458.453 214.295C458.453 245.289 483.579 270.414 514.573 270.414Z" fill="#546E7A"/>
<path d="M514.572 249.586C534.062 249.586 549.862 233.785 549.862 214.295C549.862 194.805 534.062 179.004 514.572 179.004C495.081 179.004 479.281 194.805 479.281 214.295C479.281 233.785 495.081 249.586 514.572 249.586Z" fill="#B8E9F4"/>
<path d="M211.838 203.131C211.838 203.131 192.811 247.552 203.475 291.972L190.088 282.19C190.088 282.19 191.162 260.018 197.721 235.583C204.319 211.072 211.838 203.131 211.838 203.131Z" fill="#64878E"/>
<path d="M641.162 203.131C641.162 203.131 660.188 247.552 649.524 291.972L662.912 282.19C662.912 282.19 661.838 260.018 655.278 235.583C648.681 211.072 641.162 203.131 641.162 203.131Z" fill="#64878E"/>
<path d="M418.252 251.925L397.576 301.6C395.428 306.74 399.226 312.417 404.788 312.417H445.334C450.857 312.417 454.655 306.817 452.584 301.715L432.713 252.04C430.105 245.557 420.937 245.48 418.252 251.925Z" fill="#E06055"/>
<path d="M424.429 259.213C420.248 258.024 418.982 264.622 416.757 270.414C413.075 280.119 412.078 284.645 414.111 285.374C416.796 286.371 419.136 283.303 422.741 274.518C426.194 266.271 427.958 260.21 424.429 259.213Z" fill="#EDA29B"/>
<path d="M495.511 385.569H358.261C339.426 385.569 324.121 370.302 324.121 351.429V346.404H529.612V351.429C529.612 370.263 514.345 385.569 495.511 385.569Z" fill="#B8E9F4"/>
<path d="M498.885 385.569H354.884C337.929 385.569 324.158 371.798 324.158 354.843C324.158 350.163 327.956 346.404 332.597 346.404H521.21C525.89 346.404 529.649 350.201 529.649 354.843C529.611 371.798 515.878 385.569 498.885 385.569Z" fill="#546E7A" stroke="#546E7A" stroke-width="4" stroke-miterlimit="10"/>
<path d="M360.6 350.968V383.19C360.6 383.19 324.158 380.198 324.158 351.429L360.6 350.968Z" fill="#546E7A"/>
<path d="M492.863 350.968V383.19C492.863 383.19 529.305 380.198 529.305 351.429L492.863 350.968Z" fill="#546E7A"/>
<path d="M399.304 354.613H375.521V377.475H399.304V354.613Z" fill="#B8E9F4"/>
<path d="M436.931 354.613H413.148V377.475H436.931V354.613Z" fill="#B8E9F4"/>
<path d="M474.564 354.613H450.781V377.475H474.564V354.613Z" fill="#B8E9F4"/>
<path d="M489.333 377.475H488.412V354.613H512.195C512.195 367.234 501.953 377.475 489.333 377.475Z" fill="#B8E9F4"/>
<path d="M361.711 377.475H360.79C348.17 377.475 337.928 367.234 337.928 354.613H361.711V377.475Z" fill="#B8E9F4"/>
<path d="M718 174.603L568 37.0033L546.9 60.0033L671.9 174.603H179.2L304.2 59.9033L283.1 36.9033L133.1 174.603H133V265.303C133 306.303 172.5 339.703 221 339.703H313.5C362 339.703 401.5 306.303 401.5 265.303V205.703H449.5V265.303C449.5 306.303 489 339.703 537.5 339.703H630C678.5 339.703 718 306.303 718 265.303V174.603Z" fill="#FC60A8"/>
</svg>
