<svg version="1.1" xmlns="http://www.w3.org/2000/svg" viewBox="0 0 543.9765625 214.08203125">
  <!-- svg-source:excalidraw -->
  <defs>
    <style>
      @font-face {
        font-family: "Virgil";
        src: url("https://excalidraw.com/FG_Virgil.woff2");
      }
      @font-face {
        font-family: "Cascadia";
        src: url("https://excalidraw.com/Cascadia.woff2");
      }
    </style>
  </defs>
  <g transform="translate(10 12.86328125) rotate(0 47.57421875 47.57421875)"><path d="M74.60896181522324 9.051654623943314 C81.23677330251479 13.07663076324937, 87.15954655478765 22.82072504925921, 90.31619769771339 30.785683612535138 C93.47284884063913 38.750642175811066, 94.9352484958792 48.310285544883044, 93.5488686727777 56.841406003598884 C92.16248884967621 65.37252646231472, 87.43992825436185 75.55168050875459, 81.99791875910446 81.97240636483016 C76.55590926384708 88.39313222090574, 69.38958280912435 93.39547619215135, 60.896811701233396 95.36576114005234 C52.404040593342444 97.33604608795333, 39.23976426522332 96.73479886856713, 31.04129211175874 93.79411605223612 C22.842819958294157 90.85343323590511, 17.01315023566861 84.36506277089529, 11.70597878044591 77.72166424206632 C6.398807325223211 71.07826571323736, 0.1650792196794223 62.76597954435255, -0.8017366195774613 53.933724879262314 C-1.7685524588343449 45.10147021417208, 1.6828386092525864 32.356579575415836, 5.9050837449046085 24.728136251524923 C10.12732888055663 17.09969292763401, 17.20698157016943 12.591876725468431, 24.53173419433467 8.163064935916843 C31.856486818499913 3.7342531463652557, 40.76499638893261 -2.7446749731972857, 49.85359948989606 -1.844734485784599 C58.942202590859516 -0.9447939983719126, 73.07042767085535 9.980982378320704, 79.0633528001154 13.562707860392962 C85.05627792937544 17.14443334246522, 86.12203382944843 19.472781803617103, 85.8111502654563 19.64561840664895 M60.0209694757346 4.006803062869444 C68.16371977065604 4.870275596825998, 77.61552483904822 7.835641091618277, 83.45024095038198 14.49896302344606 C89.28495706171574 21.16228495527384, 93.95345288516899 34.81440147176659, 95.02926614373715 43.98673465383614 C96.10507940230531 53.15906783590569, 93.7168553578289 61.89186977186153, 89.90512050179098 69.53296211586337 C86.09338564575305 77.1740544598652, 79.39096161267881 85.79588627384614, 72.15885700750952 89.83328871784718 C64.92675240234024 93.87069116184823, 55.09543896717531 94.02273486238202, 46.512492870775255 93.75737677986967 C37.9295467743752 93.49201869735732, 27.280014086824416 93.05239468965571, 20.66118042910918 88.24114022277305 C14.042346771393944 83.4298857558904, 10.38194156753899 72.41986361786348, 6.799490924483834 64.88984997857375 C3.217040281428678 57.35983633928402, -1.7716444925653136 51.26291731026214, -0.8335234292217564 43.06105838703469 C0.10459763412180101 34.85919946380724, 6.047497594825335 22.450149191524922, 12.428217304545178 15.678696439209073 C18.808937014265023 8.907243686893224, 29.747470658085522 4.839941106765123, 37.450794829097305 2.432341873139599 C45.15411900010909 0.024742639514075293, 54.649171455981374 0.8500036700116926, 58.648162330615875 1.2331010374559312 C62.647153205250376 1.6161984049001699, 61.52069274041166 3.7974179482805632, 61.444740076904296 4.73092607780503" style="stroke: none; stroke-width: 0; fill: rgb(18, 184, 134);"></path><path d="M13.362531125624749 13.392636771397136 C18.746393048242503 6.859825325683764, 29.05816496493103 3.947140297973843, 37.38632588937261 1.9696841569131678 C45.71448681381418 -0.007771984147507682, 55.15075772689844 -1.0942621768725975, 63.331496672274206 1.5278999250330827 C71.51223561764996 4.1500620269387625, 81.2858973447555 11.102682226498295, 86.47075956162719 17.70265676834725 C91.65562177849888 24.302631310196205, 93.73521407206411 32.78957387397724, 94.44066997350438 41.12774717612682 C95.14612587494466 49.465920478276395, 94.30655300646347 59.92227375175779, 90.70349497026885 67.7316965812447 C87.10043693407422 75.54111941073161, 80.40222111189692 83.22272757002742, 72.82232175633659 87.98428415304828 C65.24242240077626 92.74584073606914, 54.26029591943032 96.33786245962987, 45.22409883690689 96.30103607936985 C36.18790175438346 96.26420969910983, 25.38175396611423 92.89201546042291, 18.60513926119602 87.76332587148815 C11.82852455627781 82.63463628255339, 7.282769284874435 73.70225106054825, 4.56441060739764 65.52889854576131 C1.8460519299208453 57.35554603097437, -2.9775144456075786 49.35742964744098, 2.2949871963352493 38.723210782766486 C7.567488838278077 28.088991918091995, 26.745410462186072 7.794064676643733, 36.19942045905461 1.723585357714363 C45.65343045592314 -4.346893961215007, 59.360836866949626 1.614393196086111, 59.019047177546476 2.300334869190266 M25.700680012375862 7.511494577556341 C33.18172869178781 2.7845301778395886, 43.4722984567362 1.6157037808091392, 51.65063813238556 2.0165297540088503 C59.82897780803492 2.417355727208561, 68.4190270123893 4.742692791590705, 74.77071806627201 9.916450416754607 C81.12240912015473 15.090208041918508, 86.83486908224907 25.432716636589504, 89.76078445568186 33.059075504992265 C92.68669982911464 40.685434373395026, 94.12838080474788 48.11941674560169, 92.32621030686872 55.67460362717117 C90.52403980898956 63.229790508740656, 84.79646213258356 72.2036021592307, 78.94776146840691 78.39019679440915 C73.09906080423026 84.5767914295876, 65.26128565434419 90.57646750122882, 57.23400632180886 92.79417143824186 C49.206726989273534 95.0118753752549, 39.16285449747974 94.10743457935769, 30.784085473194942 91.6964204164874 C22.405316448910146 89.28540625361711, 12.37135290267005 85.26746971369828, 6.961392176100084 78.32808646102018 C1.551431449530118 71.38870320834208, -1.6102914600846152 59.33307330080426, -1.6756788862248513 50.060120900418845 C-1.7410663123650874 40.78716850003343, 1.99924144810542 30.072767766493275, 6.569067619258668 22.69037205870769 C11.138893790411917 15.307976350922107, 22.33727730471899 8.071263145811574, 25.74327814069464 5.765746653705335 C29.149278976670285 3.4602301615990965, 26.92843175200159 8.483965785543017, 27.00507263511254 8.85727310607026" style="stroke: rgb(0, 0, 0); stroke-width: 2; fill: none;"></path></g><g transform="translate(30.15234375 52.779296875) rotate(0 27 10)"><text x="0" y="14" font-family="Virgil" font-size="16px" fill="#fff">GREEN</text></g><g><g transform="translate(115.24609375 61.44140625) rotate(0 49.68451156169181 -0.7576436333358245)"><path d="M1.281112213432789 -0.23234538584947595 C17.594385881721973 -0.4914211069544157, 82.49311207483213 -0.1819576536615688, 98.08791090995074 -0.20637201815843564 M3.15717424929142 -1.001812453866005 C19.118989072442055 -0.7708018579085667, 80.56499426424503 -0.8634591696659719, 96.42307068407536 -1.3089152485132214" style="stroke: rgb(0, 0, 0); stroke-width: 2; fill: none;"></path></g><g transform="translate(115.24609375 61.44140625) rotate(0 49.68451156169181 -0.7576436333358245)"><path d="M68.03298253122166 11.103075505142217 C80.55605108684247 2.9562576739459967, 88.93583169676462 3.1273975554712132, 93.92771992087364 1.6143942415714267 M69.04712743613318 8.891780489032273 C74.39729956435015 7.3742758290042945, 84.67422975147215 3.9872347178997725, 96.22681436687708 -2.7976027265191075" style="stroke: rgb(0, 0, 0); stroke-width: 2; fill: none;"></path></g><g transform="translate(115.24609375 61.44140625) rotate(0 49.68451156169181 -0.7576436333358245)"><path d="M67.772306676271 -9.416477377035436 C80.57310298542215 -11.257186711171837, 89.0330253044589 -4.777552939575913, 93.92771992087364 1.6143942415714267 M68.78645158118252 -11.62777239314538 C74.16993095871442 -7.467029168685055, 84.51901880236997 -5.174054962014236, 96.22681436687708 -2.7976027265191075" style="stroke: rgb(0, 0, 0); stroke-width: 2; fill: none;"></path></g></g><g transform="translate(229.87109375 10.81640625) rotate(0 47.57421875 47.57421875)"><path d="M63.57410986957072 4.436035196107369 C70.91482798047225 6.657716710953144, 78.47583052345385 11.364498273307046, 83.88795554057126 17.856074818565258 C89.30008055768866 24.34765136382347, 95.03315657085656 34.83278890958985, 96.04685997227512 43.38549446765664 C97.06056337369367 51.93820002572343, 93.82967852276312 61.72925589819717, 89.9701759490826 69.17230816696599 C86.11067337540209 76.61536043573481, 80.62440770744641 84.00564826030555, 72.88984453019202 88.0438080802696 C65.15528135293764 92.08196790023365, 52.187913456184205 93.67449670668458, 43.56279688555632 93.40126708675028 C34.93768031492843 93.12803746681598, 28.185723384952073 90.99932275367067, 21.139145106424692 86.40443036066381 C14.092566827897311 81.80953796765695, 4.742778750417292 74.16201763274117, 1.2833272143920382 65.83191272870917 C-2.1761243216332153 57.50180782467717, -1.5117252303177782 44.73005130577697, 0.3824358902731717 36.423800936471814 C2.276597010864122 28.11755056716666, 6.605996293248647 21.73280720812747, 12.648293937937737 15.994410512878254 C18.690591582626826 10.25601381762904, 25.35200310334151 2.4966204085751627, 36.636221758407714 1.993420764976527 C47.92044041347392 1.4902211213778913, 71.36943868342281 8.080092002945761, 80.35360586833495 12.97521265128644 C89.33777305324709 17.87033329962712, 90.75518683213706 30.715544692549237, 90.54122486788057 31.364144655020596 M54.778038314472 -0.15291593536525738 C62.21444863861019 -0.4240320355513904, 69.57217594136824 1.9750158366243227, 75.64299242532205 7.648150144834631 C81.71380890927585 13.321284453044939, 87.80129521253193 25.32826622875031, 91.20293721819479 33.88588991389659 C94.60457922385766 42.44351359904287, 98.40463388161724 51.188810501564554, 96.0528444592992 58.99389225571231 C93.70105503698115 66.79897400986007, 83.51973365488058 74.39359947783826, 77.09220068428647 80.71638043878315 C70.66466771369235 87.03916139972803, 65.14239090491411 94.7018980527147, 57.48764663573452 96.93057802138159 C49.83290236655494 99.15925799004849, 39.034830111114175 97.48643941352456, 31.163735069208972 94.08846025078455 C23.292640027303772 90.69048108804454, 15.400227856237908 84.49482549027547, 10.261076384303315 76.54270304494153 C5.121924912368722 68.59058059960759, 1.0218769573401922 55.16188536523188, 0.3288262376014117 46.37572557878094 C-0.3642244821373689 37.58956579232999, 1.735169103540719 30.413536130772982, 6.1027720658706315 23.825744326235867 C10.470375028200543 17.23795252169875, 18.982350727149843 10.379999730111479, 26.534444011580888 6.848974751558238 C34.08653729601193 3.317949773004997, 47.157181479622665 3.3595522060574567, 51.41533177245691 2.63959445491642 C55.673482065291154 1.919636703775383, 51.965327046842596 2.159155430272316, 52.08334576858635 2.529228244712016" style="stroke: none; stroke-width: 0; fill: rgb(255, 194, 42);"></path><path d="M6.350541960204829 22.16518156744773 C9.961704892312342 15.06167080924429, 19.101704264405107 8.909390522655002, 27.13593382701389 5.192355225840032 C35.17016338962267 1.4753199290250616, 45.75656430960101 -1.379401690750554, 54.55591933585751 -0.13703021344209532 C63.35527436211401 1.1053412638663633, 73.71743287610633 6.896729908454712, 79.9320639845529 12.646584089690784 C86.14669509299947 18.396438270926854, 89.61169338390485 26.041899059500448, 91.84370598653689 34.362094873974335 C94.07571858916893 42.68229068844822, 95.62267980284764 54.112685136176424, 93.32413960034512 62.56775897653411 C91.0255993978426 71.02283281689179, 84.75922924972724 79.5230289464257, 78.05246477152171 85.09253791612042 C71.34570029331618 90.66204688581514, 61.405215996127026 94.99655728856882, 53.08355273111192 95.98481279470245 C44.76188946609682 96.97306830083608, 35.66779143941632 94.67545889407172, 28.122485181431106 91.02207095292222 C20.577178923445892 87.36868301177272, 12.530046629841653 81.58446694176176, 7.81171518320064 74.06448514780541 C3.093383736559626 66.54450335384907, -0.7332061354081555 55.75497977533274, -0.18750349841497638 45.90218018918415 C0.35819913857820274 36.04938060303556, 8.385363763362774 20.452397277596223, 11.085931005159715 14.947687630913858 C13.786498246956656 9.442977984231494, 15.155073291584237 12.135366347947349, 16.015899952366674 12.873922309089956 M66.03448413850487 5.779971202196826 C74.28226697130339 7.1445674866541635, 82.1453684719766 10.25408361046885, 87.389220724589 16.701992182206368 C92.6330729772014 23.149900753943886, 97.29128730525238 35.13605290363792, 97.49759765417923 44.46742263262193 C97.70390800310608 53.79879236160595, 93.28084078158224 64.8653806090019, 88.62708281815004 72.69021055611047 C83.97332485471784 80.51504050321904, 77.18131644428081 87.21637136485208, 69.57504987358608 91.41640231527336 C61.96878330289135 95.61643326569464, 51.6936606325909 99.02604535759336, 42.98948339398166 97.89039625863819 C34.28530615537242 96.75474715968302, 24.47988001351745 90.58294928059738, 17.349986441930632 84.60250772154234 C10.220092870343812 78.6220661624873, 2.512365612328363 69.82026773905979, 0.21012196446073972 62.007746904307936 C-2.0921216834068836 54.19522606955609, 1.2466264767255963 45.9742852276075, 3.536524554724892 37.72738271303127 C5.826422632724187 29.480480198455034, 8.47495853603153 18.856247847474336, 13.949510432456513 12.526331816850536 C19.424062328881497 6.196415786226737, 28.490569889008842 1.321351312777561, 36.3838359332748 -0.252113470711528 C44.27710197754077 -1.825578254200617, 56.58011777995047 2.3251663680717627, 61.309106698052275 3.0855431159160034 C66.03809561615408 3.845919863760244, 64.95822458273237 3.7925038948685397, 64.75776944188563 4.310147016353916" style="stroke: rgb(0, 0, 0); stroke-width: 2; fill: none;"></path></g><g transform="translate(245.796875 50.732421875) rotate(0 31 10)"><text x="0" y="14" font-family="Virgil" font-size="16px" fill="#fff">YELLOW</text></g><g><g transform="translate(341.23046875 56.3515625) rotate(0 41.40176097199321 1.062778971648214)"><path d="M-2.776255016028881 0.9941212698817252 C11.494752823809785 1.5869956220189732, 70.11626852701107 1.1985881850123405, 84.7067247107625 1.349138216674328 M-1.458901457190514 2.007759956717491 C12.42690709968408 2.086046350200971, 71.41133961896101 -0.1580656327803931, 85.5797769600153 0.1342618983983992" style="stroke: rgb(0, 0, 0); stroke-width: 2; fill: none;"></path></g><g transform="translate(341.23046875 56.3515625) rotate(0 41.40176097199321 1.062778971648214)"><path d="M58.94447537823332 11.941845928820936 C62.365836633905076 9.744918368898453, 70.64459712734737 7.735459908630608, 85.26916912436485 -1.2165727841854097 M57.37282821847809 10.961797384116021 C68.41633824777719 7.075907083449763, 78.22230854472997 2.8824121877827587, 86.85376361995935 0.7443240579962729" style="stroke: rgb(0, 0, 0); stroke-width: 2; fill: none;"></path></g><g transform="translate(341.23046875 56.3515625) rotate(0 41.40176097199321 1.062778971648214)"><path d="M58.678600113048205 -8.577640242357965 C61.84735705699977 -5.287164604286062, 70.19715066328978 -1.814492277549582, 85.26916912436485 -1.2165727841854097 M57.106952953292975 -9.55768878706288 C68.40416103236855 -6.330144606938406, 78.30225070774077 -3.4141315524806446, 86.85376361995935 0.7443240579962729" style="stroke: rgb(0, 0, 0); stroke-width: 2; fill: none;"></path></g></g><g transform="translate(438.828125 10) rotate(0 47.57421875 47.57421875)"><path d="M80.50262522759175 14.287193214280535 C86.83976024578915 19.40357219365488, 90.97401910099154 28.04164170346126, 92.70454371339784 36.19386193447615 C94.43506832580414 44.34608216549105, 93.212844108283 54.75534874417151, 90.88577290202954 63.2005146003699 C88.5587016957761 71.64568045656829, 84.8753807640447 81.54989348731544, 78.74211647587713 86.86485707166645 C72.60885218770954 92.17982065601745, 63.12035469219375 94.72144384783407, 54.086187173024065 95.0902961064759 C45.05201965385438 95.45914836511774, 32.5068819273643 93.07868282102463, 24.537111360859015 89.07797062351746 C16.567340794353736 85.07725842601029, 10.590013561902737 78.15304601318034, 6.267563773992386 71.08602292143289 C1.945113986082034 64.01899982968543, -1.5713841853133335 54.92265712333694, -1.3975873666030978 46.67583207303267 C-1.2237905478928621 38.429007022728406, 2.2090913847600477 29.058232578098078, 7.310344686253799 21.605072619607284 C12.411597987747552 14.15191266111649, 20.71257548055015 5.16825846513917, 29.209932442359413 1.9568723220879178 C37.70728940416868 -1.2545138209633344, 47.52046525986872 -3.250305922428418, 58.29448645710939 2.33675576129977 C69.06850765435007 7.923817445027958, 88.2350106970884 26.315397932056875, 93.85405962580344 35.47924242445705 C99.47310855451849 44.64308691685722, 92.99569021505859 57.55649645331264, 92.00878002939967 57.319822715700795 M46.14277594360838 1.9922783822835441 C53.9123718786936 0.8165062086532788, 66.71785245690782 1.7493768647832484, 74.28971044043044 6.2173614970527 C81.86156842395306 10.685346129322152, 87.86387148511983 20.636160056809437, 91.57392384474413 28.80018617590025 C95.28397620436843 36.964212294991064, 98.43934097396733 47.10460188860841, 96.55002459817626 55.20151821159758 C94.6607082223852 63.298434534586754, 86.23553869800202 71.189316255954, 80.2380255899977 77.3816841138353 C74.24051248199339 83.57405197171661, 68.72003263773587 89.50360146953595, 60.5649459501504 92.35572535888545 C52.40985926256493 95.20784924823495, 39.416479893723064 96.75348864739972, 31.307505464484876 94.49442744993229 C23.19853103524669 92.23536625246486, 16.976210673983353 85.4302630367983, 11.911099374721267 78.80135817408083 C6.845988075459183 72.17245331136337, 2.593219548891139 63.104693876576064, 0.9168376689123718 54.72099827362748 C-0.7595442110663957 46.337302670678895, -1.377453522307301 36.18993620102361, 1.8528080948486618 28.499184556389338 C5.083069712004624 20.808432911755062, 12.18480621148383 13.52569873542108, 20.29840737184815 8.576488405821834 C28.412008532212468 3.627278076222588, 45.64596257924295 -0.28373076758523175, 50.53441505703458 -1.196077421206141 C55.42286753482621 -2.10842407482705, 50.10680244281858 2.463442534371469, 49.629122238597944 3.1024084840963795" style="stroke: none; stroke-width: 0; fill: rgb(252, 30, 5);"></path><path d="M52.00734959008605 -1.4753510658581277 C60.03159731549896 -1.5928375800683174, 67.93720521975507 5.155825318696763, 74.68764984092674 10.614603254723221 C81.4380944620984 16.07338119074968, 89.47638925372787 23.622343652420746, 92.51001731711602 31.277316550300622 C95.54364538050417 38.9322894481805, 94.75719289657101 48.50228111912854, 92.88941822125565 56.544440642002485 C91.0216435459403 64.58660016487643, 86.9926068748016 72.97564620482689, 81.30336926522389 79.53027368754431 C75.61413165564619 86.08490117026173, 67.34752263327846 93.65076856790618, 58.75399256378945 95.87220553830704 C50.16046249430044 98.0936425087079, 38.008055212549905 95.9223461205398, 29.742188848289814 92.85889550994945 C21.476322484029723 89.7954448993591, 13.975614743310853 84.4576739338129, 9.158794378228912 77.4915018747649 C4.341974013146969 70.52532981571689, 1.5926351020152638 59.59342089646005, 0.8412666577981582 51.06186315566145 C0.08989821358105254 42.530305414862845, 0.6644682636370209 33.5434873722127, 4.650583712926277 26.30215542997327 C8.636699162215534 19.06082348773384, 12.402678241655307 10.330798833325364, 24.757959353533696 7.61387150222486 C37.11324046541208 4.896944171124357, 67.37267862243398 5.197236044231712, 78.78227038419661 10.000591443370247 C90.19186214595923 14.803946842508783, 93.89114531938904 35.606268411570056, 93.21550992410945 36.43400389705607 M82.46699904967929 19.18743767788819 C88.88115997365568 24.69679460837098, 96.13058517158687 31.70897168722844, 97.19316649457335 39.77320230500409 C98.25574781755982 47.83743292277974, 92.92367890712922 59.52334318801295, 88.84248698759811 67.5728213845421 C84.761295068067 75.62229958107125, 79.09772617090908 83.14625010519471, 72.70601497738674 88.07007148417895 C66.3143037838644 92.9938928631632, 58.49559422378791 97.32022041321252, 50.49221982646408 97.11574965844756 C42.48884542914025 96.91127890368259, 32.08720805712697 91.97825931434824, 24.685768593443772 86.84324695558914 C17.284329129760575 81.70823459683004, 9.64292199134458 74.347433487906, 6.083583044364893 66.30567550589298 C2.5242440973852065 58.26391752387995, 2.13181340495733 46.53236810908467, 3.3297349115656516 38.59269906351096 C4.527656418173973 30.653030017937258, 7.710179819210533 24.67116093817813, 13.271112084014824 18.66766123245074 C18.832044348819114 12.664161526723351, 28.97822797232923 5.209240799566322, 36.6953285003914 2.5717008291466357 C44.412429028453566 -0.06583914127305102, 51.77218463802923 0.10702701046355889, 59.57371525238783 2.8424214099326193 C67.37524586674643 5.577815809401679, 79.36015410595078 16.89540400193856, 83.50451218654298 18.984067225961 C87.64887026713518 21.07273044998344, 85.04779716878899 15.232727312682988, 84.43986373594097 15.374400754067256" style="stroke: rgb(0, 0, 0); stroke-width: 2; fill: none;"></path></g><g transform="translate(467.48046875 49.916015625) rotate(0 18.5 10)"><text x="0" y="14" font-family="Virgil" font-size="16px" fill="#fff">RED</text></g><g><g transform="translate(481.3828125 122.4609375) rotate(0 -206.9671789237857 22.4063004039228)"><path d="M-12.313424968719508 -2.1956302892474047 C-46.53730417059091 6.023000251310759, -154.81258196157563 48.020828838210846, -220.15662021435645 47.87617201805116 C-285.50065846713727 47.73151519789147, -373.5933755074066 4.96604996894797, -404.3776544854045 -3.063571210205555 M-9.556703362166907 -2.566960388651263 C-44.77480111376669 4.581389545954956, -156.1726803788776 46.390127254686305, -221.59184853799488 47.00976166695357 C-287.01101669711215 47.62939607922084, -370.8161804873866 9.346861354758342, -402.0717123168707 1.150846084952355" style="stroke: rgb(0, 0, 0); stroke-width: 2; fill: none;"></path></g><g transform="translate(481.3828125 122.4609375) rotate(0 -206.9671789237857 22.4063004039228)"><path d="M-375.0491164963263 -0.3794810134076334 C-377.3684930199323 3.297050384916628, -390.1967667442952 2.771293935194763, -402.08955882668494 3.6819708406925207 M-373.01151621002134 0.6239392128682875 C-382.1185350876873 1.0521617289273522, -397.32296692690994 -0.202386235130378, -402.6537353786826 2.315629361569882" style="stroke: rgb(0, 0, 0); stroke-width: 2; fill: none;"></path></g><g transform="translate(481.3828125 122.4609375) rotate(0 -206.9671789237857 22.4063004039228)"><path d="M-381.61180458119185 19.06405589443407 C-382.2003394522741 18.122040133115043, -393.48086606202935 13.01071177174327, -402.08955882668494 3.6819708406925207 M-379.5742042948869 20.06747612070999 C-386.3802395418839 12.830100208765145, -398.9722154853559 3.8355252965613715, -402.6537353786826 2.315629361569882" style="stroke: rgb(0, 0, 0); stroke-width: 2; fill: none;"></path></g></g><g transform="translate(123.2890625 19.8828125) rotate(0 38 10)"><text x="0" y="14" font-family="Virgil" font-size="16px" fill="#000000">360 segs</text></g><g transform="translate(345.4609375 20.13671875) rotate(0 38 10)"><text x="0" y="14" font-family="Virgil" font-size="16px" fill="#000000">360 segs</text></g><g transform="translate(232.27734375 184.08203125) rotate(0 38 10)"><text x="0" y="14" font-family="Virgil" font-size="16px" fill="#000000">360 segs</text></g></svg>